<svg width="250" height="250" viewBox="0 0 250 250" fill="none" xmlns="http://www.w3.org/2000/svg">
<rect width="249.041" height="249.041" rx="10" fill="#FFDCA8"/>
<path fill-rule="evenodd" clip-rule="evenodd" d="M10 5H239.041C241.802 5 244.041 7.23858 244.041 10V239.041C244.041 241.802 241.802 244.041 239.041 244.041H10C7.23858 244.041 5 241.802 5 239.041V10C5 7.23858 7.23858 5 10 5ZM0 10C0 4.47716 4.47715 0 10 0H239.041C244.564 0 249.041 4.47715 249.041 10V239.041C249.041 244.564 244.564 249.041 239.041 249.041H10C4.47716 249.041 0 244.564 0 239.041V10ZM19.5785 14.5785H229.017C231.779 14.5785 234.017 16.8171 234.017 19.5785V229.017C234.017 231.779 231.779 234.017 229.017 234.017H19.5785C16.8171 234.017 14.5785 231.779 14.5785 229.017V19.5785C14.5785 16.8171 16.8171 14.5785 19.5785 14.5785ZM9.57848 19.5785C9.57848 14.0557 14.0556 9.57851 19.5785 9.57851H229.017C234.54 9.57851 239.017 14.0557 239.017 19.5785V229.017C239.017 234.54 234.54 239.017 229.017 239.017H19.5785C14.0556 239.017 9.57848 234.54 9.57848 229.017V19.5785Z" fill="#E8B86F"/>
<rect x="13.4099" y="13.4099" width="221.263" height="221.263" rx="7" fill="#FFEED4"/>
<circle cx="30.9334" cy="31.8912" r="7.40284" fill="#FFDCA8" stroke="#E8B76F" stroke-width="3"/>
<circle cx="217.714" cy="31.8912" r="7.40284" fill="#FFDCA8" stroke="#E8B76F" stroke-width="3"/>
<circle cx="217.714" cy="217.714" r="7.40284" fill="#FFDCA8" stroke="#E8B76F" stroke-width="3"/>
<circle cx="30.9334" cy="217.714" r="7.40284" fill="#FFDCA8" stroke="#E8B76F" stroke-width="3"/>
<rect x="76.89" y="28.6065" width="15.6904" height="7.16494" rx="3.58247" fill="#FFDCA8" stroke="#E8B76F" stroke-width="3"/>
<rect x="102.849" y="28.6065" width="15.6904" height="7.16494" rx="3.58247" fill="#FFDCA8" stroke="#E8B76F" stroke-width="3"/>
<rect x="128.808" y="28.6065" width="15.6904" height="7.16494" rx="3.58247" fill="#FFDCA8" stroke="#E8B76F" stroke-width="3"/>
<rect x="154.767" y="28.6065" width="15.6904" height="7.16494" rx="3.58247" fill="#FFDCA8" stroke="#E8B76F" stroke-width="3"/>
<rect x="77.6702" y="51.8082" width="92.7429" height="34.314" rx="8" stroke="#E8B76F" stroke-width="4"/>
<path d="M88.0984 121.695C88.0984 121.695 67.8501 111.824 51.568 133.876C46.5581 140.662 49.1119 157.685 54.0729 165.38C59.0828 173.151 59.709 197.304 59.709 197.304C60.0893 212.097 63.7406 219.108 68.6416 221.698C86.3198 231.042 91.7973 198.615 86.8459 179.242C85.2356 172.941 85.7326 166.99 86.8459 163.49L90.391 153.311C93.7212 143.75 98.2036 132.26 91.6078 124.579C89.8212 122.498 88.0984 121.695 88.0984 121.695Z" fill="#FFDCA8" stroke="#E8B76F" stroke-width="3"/>
<path d="M159.215 121.695C159.215 121.695 179.86 111.824 196.462 133.876C201.57 140.662 198.966 157.685 193.908 165.38C188.8 173.151 188.161 197.304 188.161 197.304C187.764 212.477 183.857 219.463 178.666 221.889C160.565 230.35 155.454 198.576 160.492 179.242C162.134 172.941 161.627 166.99 160.492 163.49L156.957 153.536C153.509 143.827 148.881 132.044 155.793 124.403C157.558 122.453 159.215 121.695 159.215 121.695Z" fill="#FFDCA8" stroke="#E8B76F" stroke-width="3"/>
<path d="M98.9903 107.644C98.8089 109.432 97.7923 111.856 96.2418 113.836C94.6634 115.852 92.837 117.034 91.1993 117.034C89.6712 117.034 88.3482 116.006 87.3236 114.093C86.3088 112.199 85.7908 109.763 85.7908 107.795C85.7908 102.66 89.8373 98.9617 93.5741 98.9617C95.4388 98.9617 96.854 99.7154 97.7838 101.061C98.7473 102.455 99.2945 104.647 98.9903 107.644Z" fill="#FFDCA8" stroke="#E8B76F" stroke-width="3"/>
<path d="M81.8329 107.719C81.8329 109.089 81.5802 110.454 81.043 111.471C80.5323 112.438 79.8057 113.041 78.7325 113.182C77.9061 113.291 77.0467 112.972 76.2506 112.093C75.4392 111.196 74.7584 109.764 74.4626 107.917C74.0662 105.441 74.433 103.908 74.989 103.048C75.5072 102.248 76.3144 101.835 77.3863 101.835C78.5062 101.835 79.5805 102.259 80.3851 103.139C81.1896 104.018 81.8329 105.475 81.8329 107.719Z" fill="#FFDCA8" stroke="#E8B76F" stroke-width="3"/>
<path d="M174.108 108.305C173.904 109.611 173.464 110.872 172.811 111.759C172.191 112.601 171.435 113.052 170.438 113.03C169.681 113.013 168.94 112.605 168.328 111.658C167.703 110.692 167.276 109.233 167.272 107.428C167.268 105.007 167.841 103.605 168.484 102.876C169.079 102.202 169.875 101.937 170.856 102.089C171.886 102.25 172.816 102.799 173.433 103.743C174.052 104.688 174.441 106.164 174.108 108.305Z" fill="#FFDCA8" stroke="#E8B76F" stroke-width="3"/>
<path d="M183.992 111.554C183.315 112.69 182.436 113.695 181.499 114.273C180.609 114.823 179.739 114.958 178.823 114.565C178.127 114.267 177.592 113.611 177.378 112.504C177.16 111.375 177.309 109.862 177.98 108.186C178.88 105.939 179.936 104.853 180.805 104.417C181.608 104.014 182.446 104.065 183.299 104.574C184.194 105.108 184.851 105.965 185.071 107.07C185.292 108.178 185.102 109.693 183.992 111.554Z" fill="#FFDCA8" stroke="#E8B76F" stroke-width="3"/>
<path d="M194.073 117.014C193.396 118.15 192.516 119.155 191.58 119.733C190.69 120.283 189.82 120.418 188.903 120.025C188.207 119.727 187.673 119.071 187.459 117.965C187.24 116.836 187.389 115.322 188.06 113.647C188.961 111.399 190.017 110.313 190.885 109.877C191.689 109.474 192.527 109.526 193.379 110.034C194.275 110.568 194.932 111.425 195.152 112.53C195.372 113.638 195.182 115.153 194.073 117.014Z" fill="#FFDCA8" stroke="#E8B76F" stroke-width="3"/>
<path d="M70.4746 109.581C70.6522 110.892 70.59 112.226 70.2172 113.262C69.863 114.246 69.2667 114.893 68.305 115.157C67.5745 115.357 66.7478 115.177 65.8912 114.444C65.0175 113.697 64.1913 112.42 63.673 110.691C62.9778 108.372 63.1278 106.865 63.536 105.982C63.9135 105.167 64.6012 104.685 65.5848 104.552C66.618 104.412 67.6657 104.673 68.5265 105.401C69.389 106.131 70.1838 107.435 70.4746 109.581Z" fill="#FFDCA8" stroke="#E8B76F" stroke-width="3"/>
<path d="M60.3211 114.556C60.6787 115.829 60.8023 117.159 60.5768 118.237C60.3625 119.261 59.8619 119.985 58.946 120.379C58.2503 120.678 57.4066 120.615 56.4567 120.008C55.4877 119.389 54.4923 118.239 53.7392 116.599C52.729 114.399 52.6684 112.885 52.9503 111.955C53.2109 111.095 53.8252 110.522 54.7808 110.254C55.7845 109.972 56.8584 110.085 57.8118 110.687C58.7672 111.29 59.7352 112.471 60.3211 114.556Z" fill="#FFDCA8" stroke="#E8B76F" stroke-width="3"/>
<path d="M52.3605 122.382C52.9489 123.472 53.3319 124.656 53.3472 125.675C53.3617 126.64 53.0593 127.38 52.3257 127.913C51.7758 128.312 51.0177 128.43 50.0384 128.075C49.0378 127.713 47.8967 126.874 46.8718 125.53C45.4942 123.725 45.1375 122.365 45.2021 121.48C45.2615 120.667 45.6882 120.038 46.4893 119.605C47.3344 119.149 48.3206 119.034 49.2979 119.382C50.2773 119.73 51.3975 120.599 52.3605 122.382Z" fill="#FFDCA8" stroke="#E8B76F" stroke-width="3"/>
<path d="M200.913 126.173C199.999 127.008 198.943 127.667 197.958 127.929C197.025 128.177 196.234 128.064 195.539 127.481C195.019 127.045 194.72 126.338 194.826 125.302C194.935 124.243 195.473 122.933 196.527 121.612C197.944 119.838 199.176 119.162 200.051 119.01C200.854 118.87 201.568 119.131 202.182 119.803C202.83 120.513 203.18 121.441 203.081 122.474C202.981 123.508 202.409 124.806 200.913 126.173Z" fill="#FFDCA8" stroke="#E8B76F" stroke-width="3"/>
<path d="M161.399 105.862C161.82 107.709 161.663 110.426 160.874 112.853C160.064 115.343 158.763 117.025 157.309 117.506C155.965 117.95 154.425 117.384 152.825 115.783C151.259 114.215 149.977 111.957 149.33 110C147.622 104.832 150.243 99.9974 153.59 98.8913C155.261 98.3392 156.791 98.6264 158.102 99.6782C159.466 100.773 160.699 102.793 161.399 105.862Z" fill="#FFDCA8" stroke="#E8B76F" stroke-width="3"/>
</svg>
