<svg width="285" height="152" viewBox="0 0 285 152" fill="none" xmlns="http://www.w3.org/2000/svg">
<path d="M5 133.789L5 44.8141C5 42.5188 5.59847 40.2361 6.83157 38.3002C31.3375 -0.17431 74.9211 -0.121125 109.064 12.6357C117.706 15.8647 125.855 20.7309 131.567 27.9755C138.576 36.8652 140.978 45.4096 141.801 50.2219C142.222 52.684 143.561 54.9961 145.723 56.2476L155.695 62.0207C160.018 64.5238 162.68 69.141 162.68 74.1367V84.1418C162.68 89.5373 159.552 94.414 154.924 97.1881C149.346 100.532 143.853 104.42 140.401 107.336C138.542 108.907 137.656 111.268 137.656 113.701V133.789C137.656 140.968 131.836 146.789 124.656 146.789L18 146.789C10.8203 146.789 5 140.968 5 133.789Z" fill="#F7C144" stroke="black" stroke-width="9"/>
<path d="M137.839 92.298V69.5908C137.839 68.911 138.502 68.4293 139.149 68.6401L149.526 72.0241C149.938 72.1583 150.216 72.542 150.216 72.9748V86.2068C150.216 86.5615 150.028 86.8896 149.723 87.0692L139.345 93.1604C138.678 93.5517 137.839 93.071 137.839 92.298Z" fill="#717272" stroke="black" stroke-width="5"/>
<circle cx="72.5388" cy="76.828" r="32.902" fill="#717272" stroke="black" stroke-width="9"/>
<rect x="142.339" y="115.771" width="136.665" height="17.5677" fill="#D9D9D9" stroke="black" stroke-width="9"/>
<path d="M275.258 142.419V111.271H284.419V142.419C284.419 144.949 282.369 147 279.839 147C277.309 147 275.258 144.949 275.258 142.419Z" fill="black"/>
</svg>
